<?xml version="1.0" standalone="no"?>
<!DOCTYPE svg PUBLIC "-//W3C//DTD SVG 20010904//EN"
 "http://www.w3.org/TR/2001/REC-SVG-20010904/DTD/svg10.dtd">
<svg version="1.0" xmlns="http://www.w3.org/2000/svg"
 width="906.000000pt" height="906.000000pt" viewBox="0 0 906.000000 906.000000"
 preserveAspectRatio="xMidYMid meet">
<metadata>
Created by potrace 1.14, written by Peter Selinger 2001-2017
</metadata>
<g transform="translate(0.000000,906.000000) scale(0.100000,-0.100000)"
fill="#000000" stroke="none">
<path d="M0 4530 l0 -4530 4530 0 4530 0 0 4530 0 4530 -4530 0 -4530 0 0
-4530z m8960 5 l0 -4425 -4430 0 -4430 0 0 4425 0 4425 4430 0 4430 0 0 -4425z"/>
<path d="M493 7058 c4 -1228 4 -1223 47 -1440 129 -636 548 -998 1156 -998
308 0 543 94 762 304 102 98 164 174 230 284 l50 84 53 -102 c162 -309 430
-501 778 -556 144 -23 363 -16 481 15 224 59 428 201 576 400 l59 81 3 -230 2
-230 643 0 642 0 249 743 c137 408 317 942 399 1186 l150 444 344 -1024 c188
-563 368 -1097 399 -1186 l56 -163 419 0 c231 0 419 3 419 7 0 5 -300 808
-667 1786 l-668 1777 -303 -2 -304 -3 -471 -1256 -472 -1255 -3 1258 -2 1258
-415 0 -415 0 0 -1157 c0 -1281 2 -1230 -65 -1372 -65 -136 -196 -237 -361
-277 -94 -23 -296 -23 -384 -1 -225 59 -364 201 -432 443 l-23 79 -3 1143 -3
1142 -414 0 -415 0 0 -1135 c0 -999 -2 -1145 -16 -1213 -41 -199 -145 -344
-300 -417 -95 -45 -168 -59 -304 -58 -207 1 -326 43 -451 161 -80 75 -137 177
-171 303 l-22 84 -3 1138 -4 1137 -415 0 -415 0 4 -1182z"/>
<path d="M5121 4369 c-221 -27 -406 -117 -574 -279 -46 -44 -108 -114 -138
-155 l-54 -76 -3 235 -2 236 -639 0 -639 0 -36 -102 c-20 -57 -200 -591 -400
-1188 -268 -799 -366 -1080 -372 -1065 -5 11 -185 544 -400 1185 l-392 1165
-422 3 c-362 2 -421 0 -418 -12 2 -8 302 -811 668 -1785 l665 -1771 305 0 305
0 470 1252 470 1251 3 -1251 2 -1252 415 0 415 0 0 1145 c0 1281 -2 1232 70
1381 93 191 289 294 557 294 127 0 219 -20 318 -69 171 -85 278 -245 315 -473
6 -40 10 -466 10 -1170 l0 -1108 415 0 415 0 0 1123 c1 1204 0 1197 52 1337
85 232 285 359 566 360 324 0 540 -157 625 -459 22 -76 22 -81 25 -1218 l3
-1143 415 0 415 0 -4 1198 c-4 1273 -3 1235 -52 1454 -60 269 -175 490 -339
654 -180 179 -397 276 -689 305 -462 46 -859 -164 -1115 -589 l-48 -81 -38 77
c-152 309 -404 504 -734 572 -116 23 -308 32 -411 19z"/>
</g>
</svg>
